<?xml version="1.0" encoding="UTF-8"?>
<svg width="800" height="400" viewBox="0 0 800 400" xmlns="http://www.w3.org/2000/svg">
    <!-- Background -->
    <rect width="800" height="400" fill="#ffffff"/>
    
    <!-- Grid lines -->
    <g stroke="#e5e5e5" stroke-width="1">
        <line x1="100" y1="50" x2="100" y2="350"/>
        <line x1="100" y1="350" x2="750" y2="350"/>
        <line x1="100" y1="300" x2="750" y2="300"/>
        <line x1="100" y1="250" x2="750" y2="250"/>
        <line x1="100" y1="200" x2="750" y2="200"/>
        <line x1="100" y1="150" x2="750" y2="150"/>
        <line x1="100" y1="100" x2="750" y2="100"/>
        <line x1="100" y1="50" x2="750" y2="50"/>
    </g>

    <!-- Bars -->
    <!-- NSLock -->
    <g transform="translate(120,0)">
        <rect x="0" y="347.32" width="20" height="2.68" fill="#4C51BF"/>
        <rect x="25" y="347.26" width="20" height="2.74" fill="#48BB78"/>
        <rect x="50" y="347.40" width="20" height="2.60" fill="#ED8936"/>
    </g>

    <!-- NSLockWithBlock -->
    <g transform="translate(200,0)">
        <rect x="0" y="345.55" width="20" height="4.45" fill="#4C51BF"/>
        <rect x="25" y="346.57" width="20" height="3.43" fill="#48BB78"/>
        <rect x="50" y="345.53" width="20" height="4.47" fill="#ED8936"/>
    </g>

    <!-- Unfair Lock -->
    <g transform="translate(280,0)">
        <rect x="0" y="347.37" width="20" height="2.63" fill="#4C51BF"/>
        <rect x="25" y="346.44" width="20" height="3.56" fill="#48BB78"/>
        <rect x="50" y="347.40" width="20" height="2.60" fill="#ED8936"/>
    </g>

    <!-- Unfair Lock OOP -->
    <g transform="translate(360,0)">
        <rect x="0" y="345.13" width="20" height="4.87" fill="#4C51BF"/>
        <rect x="25" y="345.38" width="20" height="4.62" fill="#48BB78"/>
        <rect x="50" y="346.35" width="20" height="3.65" fill="#ED8936"/>
    </g>

    <!-- Actor -->
    <g transform="translate(440,0)">
        <rect x="0" y="333.78" width="20" height="16.22" fill="#4C51BF"/>
        <rect x="25" y="333.62" width="20" height="16.38" fill="#48BB78"/>
        <rect x="50" y="332.76" width="20" height="17.24" fill="#ED8936"/>
    </g>

    <!-- RW Lock -->
    <g transform="translate(520,0)">
        <rect x="0" y="333.85" width="20" height="16.15" fill="#4C51BF"/>
        <rect x="25" y="330.69" width="20" height="19.31" fill="#48BB78"/>
        <rect x="50" y="334.74" width="20" height="15.26" fill="#ED8936"/>
    </g>

    <!-- Concurrent Queue -->
    <g transform="translate(600,0)">
        <rect x="0" y="330.79" width="20" height="19.21" fill="#4C51BF"/>
        <rect x="25" y="320.43" width="20" height="29.57" fill="#48BB78"/>
        <rect x="50" y="318.81" width="20" height="31.19" fill="#ED8936"/>
    </g>

    <!-- Serial Queue -->
    <g transform="translate(680,0)">
        <rect x="0" y="319.18" width="20" height="30.82" fill="#4C51BF"/>
        <rect x="25" y="320.60" width="20" height="29.40" fill="#48BB78"/>
        <rect x="50" y="320.65" width="20" height="29.35" fill="#ED8936"/>
    </g>

    <!-- Labels -->
    <g font-family="Arial" font-size="12" fill="#374151">
        <!-- Y-axis labels -->
        <text x="70" y="355" text-anchor="end">0.00</text>
        <text x="70" y="305" text-anchor="end">0.05</text>
        <text x="70" y="255" text-anchor="end">0.10</text>
        <text x="70" y="205" text-anchor="end">0.15</text>
        <text x="70" y="155" text-anchor="end">0.20</text>
        <text x="70" y="105" text-anchor="end">0.25</text>
        <text x="70" y="55" text-anchor="end">0.30</text>

        <!-- X-axis labels -->
        <g transform="translate(0,370)" text-anchor="middle">
            <text x="140">NSLock</text>
            <text x="220">NSLockWithBlock</text>
            <text x="300">Unfair Lock</text>
            <text x="380">Unfair Lock OOP</text>
            <text x="460">Actor</text>
            <text x="540">RW Lock</text>
            <text x="620">Concurrent Queue</text>
            <text x="700">Serial Queue</text>
        </g>
    </g>

    <!-- Title and Legend -->
    <g font-family="Arial" font-size="14" fill="#1F2937">
        <text x="400" y="30" text-anchor="middle" font-weight="bold">Cache Implementation Performance Comparison</text>
    </g>

    <!-- Legend -->
    <g transform="translate(600,60)" font-family="Arial" font-size="12">
        <rect x="0" y="0" width="15" height="15" fill="#4C51BF"/>
        <text x="20" y="12">Write Heavy</text>
        <rect x="0" y="20" width="15" height="15" fill="#48BB78"/>
        <text x="20" y="32">Read Heavy</text>
        <rect x="0" y="40" width="15" height="15" fill="#ED8936"/>
        <text x="20" y="52">Contention</text>
    </g>

    <!-- Y-axis title -->
    <text x="30" y="200" font-family="Arial" font-size="12" transform="rotate(-90,30,200)" text-anchor="middle">Time (seconds)</text>
</svg>